<?xml version="1.0" standalone="no"?><!DOCTYPE svg PUBLIC "-//W3C//DTD SVG 1.1//EN" "http://www.w3.org/Graphics/SVG/1.1/DTD/svg11.dtd"><svg class="icon" width="200px" height="200.00px" viewBox="0 0 1024 1024" version="1.1" xmlns="http://www.w3.org/2000/svg"><path d="M504.149333 140.373333c105.352533 0 197.000533 35.805867 273.339734 106.769067l6.144 5.819733c75.434667 72.9088 116.445867 161.792 122.282666 265.130667l0.392534 8.413867a34.133333 34.133333 0 0 1-31.607467 35.328l-2.491733 0.085333H136.174933a34.133333 34.133333 0 0 1-34.0992-35.413333c4.0448-106.888533 45.175467-198.656 122.589867-273.527467 77.550933-74.837333 171.298133-112.605867 279.483733-112.605867z m0 68.266667c-90.5216 0-167.253333 30.9248-232.0384 93.422933-54.954667 53.162667-87.534933 115.285333-98.2016 187.409067l-0.580266 4.164267h661.691733l-0.546133-4.164267c-10.308267-69.563733-40.96-129.792-92.450134-181.6576l-5.8368-5.768533-5.870933-5.546667c-61.559467-56.951467-133.717333-86.016-217.975467-87.773867l-8.192-0.085333z" fill="#444444" /><path d="M504.149333 68.266667a34.133333 34.133333 0 0 1 34.048 31.5904l0.085334 2.56v72.072533a34.133333 34.133333 0 0 1-68.164267 2.56l-0.1024-2.56V102.4a34.133333 34.133333 0 0 1 34.133333-34.133333zM504.149333 499.3024a34.133333 34.133333 0 0 1 34.048 31.573333l0.085334 2.56V817.322667c0 32.7168-11.8272 61.525333-34.816 84.48-23.381333 23.381333-54.493867 37.205333-86.784 37.205333-32.324267 0-63.488-13.806933-86.784-37.102933-22.647467-22.6304-32.597333-50.653867-32.597334-84.514134a34.133333 34.133333 0 0 1 68.181334-2.542933l0.1024 2.56c0 16.827733 3.754667 27.392 12.578133 36.215467 10.922667 10.922667 24.9344 17.134933 38.519467 17.134933 13.5168 0 27.528533-6.229333 38.536533-17.237333 9.2672-9.250133 13.994667-19.626667 14.6944-32.597334l0.1024-3.601066V533.435733a34.133333 34.133333 0 0 1 34.133333-34.133333z" fill="#444444" /><path d="M580.266667 290.133333c1.962667 0 3.8912 0.170667 5.768533 0.477867l2.7648 0.597333c69.922133 18.056533 145.527467 84.002133 158.72 152.5248h-70.929067c-14.5408-34.474667-60.347733-73.2672-101.085866-85.367466l-3.754667-1.041067A34.133333 34.133333 0 0 1 580.266667 290.133333z" fill="#00B386" /></svg>