<?xml version="1.0" standalone="no"?><!DOCTYPE svg PUBLIC "-//W3C//DTD SVG 1.1//EN" "http://www.w3.org/Graphics/SVG/1.1/DTD/svg11.dtd"><svg class="icon" width="200px" height="200.00px" viewBox="0 0 1024 1024" version="1.1" xmlns="http://www.w3.org/2000/svg"><path d="M216.064 121.736533a34.133333 34.133333 0 0 1 44.1344 19.592534c49.015467 127.317333 43.434667 258.338133-17.3568 377.173333-6.144 12.049067-13.073067 23.671467-22.101333 37.444267l-23.4496 34.747733c-55.808 82.773333-73.1648 145.92-53.76 269.789867a34.133333 34.133333 0 1 1-67.4304 10.581333c-21.845333-139.332267-1.160533-219.0336 60.672-312.661333l23.1936-34.304c9.6768-14.506667 16.452267-25.6512 22.101333-36.676267 51.848533-101.3248 56.558933-212.138667 14.421333-321.570133a34.133333 34.133333 0 0 1 19.592534-44.117334z" fill="#434343" /><path d="M831.488 631.261867l0.682667-0.8704a34.133333 34.133333 0 0 1 54.0672 41.6768c-4.215467 5.461333-11.810133 13.7728-23.0912 23.927466-17.988267 16.2304-40.157867 32.290133-66.696534 47.1552-74.4448 41.693867-169.079467 66.491733-285.2864 66.491734-116.155733 0-211.165867-24.7808-286.293333-66.423467-26.760533-14.830933-49.152-30.839467-67.413333-47.035733-11.4176-10.103467-19.131733-18.3808-23.415467-23.790934a34.133333 34.133333 0 0 1 51.746133-44.4416l3.5328 4.130134c2.525867 2.816 6.9632 7.304533 13.431467 13.021866 14.592 12.9536 32.938667 26.0608 55.210667 38.4 65.024 36.061867 148.6848 57.873067 253.201066 57.873067 104.4992 0 187.665067-21.794133 251.938134-57.787733 21.998933-12.322133 40.0384-25.3952 54.340266-38.2976 7.2192-6.485333 11.844267-11.400533 14.0288-14.0288z" fill="#434343" /><path d="M562.1248 619.178667a49.7664 49.7664 0 1 1-99.549867 0 49.7664 49.7664 0 0 1 99.549867 0" fill="#444444" /><path d="M753.083733 141.346133a34.133333 34.133333 0 0 1 63.709867 24.5248c-42.154667 109.431467-37.444267 220.228267 14.3872 321.536 4.949333 9.642667 10.752 19.387733 18.602667 31.402667l10.2912 15.291733c5.137067 7.594667 11.195733 16.469333 12.509866 18.414934 64.853333 96.2048 86.8864 176.298667 64.6144 318.549333a34.133333 34.133333 0 0 1-67.447466-10.581333c18.978133-121.122133 2.781867-184.200533-50.107734-264.328534l-23.1424-34.184533c-11.008-16.503467-19.0464-29.696-26.077866-43.4688-60.808533-118.8352-66.372267-249.856-17.339734-377.173333z" fill="#434343" /><path d="M895.488 167.765333l54.084267 41.642667c-35.720533 46.370133-38.434133 117.3504-14.0288 212.514133l1.979733 7.560534L871.594667 447.146667c-30.805333-114.9952-29.184-206.5408 20.514133-274.875734l3.396267-4.522666z" fill="#00B386" /></svg>