<?xml version="1.0" standalone="no"?><!DOCTYPE svg PUBLIC "-//W3C//DTD SVG 1.1//EN" "http://www.w3.org/Graphics/SVG/1.1/DTD/svg11.dtd"><svg class="icon" width="200px" height="200.00px" viewBox="0 0 1024 1024" version="1.1" xmlns="http://www.w3.org/2000/svg"><path d="M106.018133 398.421333a40.789333 40.789333 0 0 1-1.058133-7.543466c-1.0752-21.76 14.472533-40.465067 30.378667-47.6672 16.520533-7.509333 33.4848-3.618133 45.397333 10.3424a42.154667 42.154667 0 0 1 9.250133 35.84c-3.976533 19.797333-20.7872 34.3552-35.328 38.485333a36.727467 36.727467 0 0 1-26.0096-1.962667 40.5504 40.5504 0 0 1-22.6304-27.4944M336.5888 176.0768a44.253867 44.253867 0 0 1-5.051733-6.126933c-12.8-18.756267-9.1136-43.844267 1.1264-58.9312 10.581333-15.616 27.784533-21.4016 45.994666-15.479467a43.9296 43.9296 0 0 1 27.6992 26.862933c7.236267 19.797333 0.170667 41.864533-10.496 53.435734a38.280533 38.280533 0 0 1-24.200533 12.3904 42.257067 42.257067 0 0 1-35.072-12.151467M297.472 699.136c2.082133-2.082133 3.976533-4.386133 5.717333-6.877867 14.506667-21.111467 10.513067-49.408-0.938666-66.474666-11.861333-17.681067-31.249067-24.302933-51.797334-17.7152a49.646933 49.646933 0 0 0-31.402666 30.139733c-8.260267 22.289067-0.426667 47.2064 11.5712 60.330667a43.178667 43.178667 0 0 0 27.221333 14.114133c15.086933 1.706667 29.354667-3.242667 39.6288-13.5168M240.128 335.496533a36.522667 36.522667 0 0 1-4.0448-4.898133c-10.222933-15.018667-7.287467-35.089067 0.904533-47.138133 8.465067-12.4928 22.237867-17.134933 36.795734-12.3904a35.2256 35.2256 0 0 1 22.186666 21.504c5.751467 15.8208 0.119467 33.467733-8.430933 42.734933a30.634667 30.634667 0 0 1-19.3536 9.915733 33.792 33.792 0 0 1-28.0576-9.728" fill="#444444" /><path d="M897.467733 61.201067a34.133333 34.133333 0 0 1 50.261334 46.097066l-1.9968 2.167467-356.334934 356.352a34.133333 34.133333 0 0 1-50.261333-46.114133l1.9968-2.167467 356.334933-356.352z" fill="#444444" /><path d="M190.225067 457.250133c-122.9312 122.9312-164.864 321.826133-69.563734 417.143467 95.317333 95.317333 294.229333 53.367467 417.160534-69.5808 116.667733-116.650667 139.195733-287.829333 46.08-385.9968l-3.771734-3.8912c-97.467733-97.4848-271.6672-75.912533-389.905066 42.325333z m341.623466 5.9392c67.822933 67.822933 51.524267 199.543467-42.308266 293.358934-99.515733 99.515733-257.365333 132.8128-320.597334 69.5808C105.710933 762.88 138.990933 605.0304 238.506667 505.514667c93.832533-93.832533 225.536-110.148267 293.341866-42.325334z" fill="#444444" /><path d="M672.2048 733.013333l63.744 24.4224c-17.646933 46.045867-46.0288 89.4976-83.2512 126.754134a429.5168 429.5168 0 0 1-94.8224 70.997333l-8.823467 4.7616-31.778133-60.416c32.477867-17.083733 62.344533-38.843733 87.1424-63.624533 28.4672-28.4672 50.4832-61.166933 64.853333-95.522134l2.935467-7.389866z" fill="#00B386" /></svg>